<svg id="Filled" height="512" viewBox="0 0 512 512" width="512" xmlns="http://www.w3.org/2000/svg"><circle cx="96" cy="168" fill="#fc6c9f" r="16"/><circle cx="152" cy="144" fill="#e74444" r="16"/><path d="m192 184h80v80h-80z" fill="#fc6c9f"/><ellipse cx="232" cy="184" fill="#7e8488" rx="40" ry="16"/><path d="m488 488h-464v-168l48-72h368l48 72z" fill="#c2856c"/><path d="m456 488h-400v-144l40-64h320l40 64z" fill="#fae8d8"/><path d="m392.921 24.024a16.02 16.02 0 0 0 -16.921 15.976v208h32v-79.943s64-8 64-80c0-52.748-51.525-62.557-79.079-64.033zm15.079 112.033v-80s32 0 32 40c0 32-32 40-32 40z" fill="#e0e2e5"/><path d="m392.92 24.02a16.023 16.023 0 0 0 -16.92 15.98v144h32v-15.94s64-8 64-80c0-52.75-51.52-62.56-79.08-64.04zm15.08 112.04v-80s32 0 32 40c0 32-32 40-32 40z" fill="#7e8488"/><path d="m376 184h32v64h-32z" fill="#e0e2e5"/><path d="m328 144q0-1.388.058-2.762a48 48 0 1 0 -32.019.033q-.039 1.361-.039 2.729c0 35.339 18.987 66.557 48 85.35v18.65h64v-32c-44.183 0-80-32.235-80-72zm-16-31.943a16 16 0 1 1 16-16 16 16 0 0 1 -16 16z" fill="#cfd1d3"/><path d="m328 144q0-1.388.058-2.762a48 48 0 1 0 -32.019.033q-.039 1.361-.039 2.729a97.5 97.5 0 0 0 1.321 16h32.686a65.318 65.318 0 0 1 -2.007-16zm-16-31.943a16 16 0 1 1 16-16 16 16 0 0 1 -16 16z" fill="#7e8488"/><path d="m384 368h-256a8 8 0 0 0 0 16h232v24a8 8 0 0 0 16 0v-24h8a8 8 0 0 0 0-16z"/><path d="m403.077 142.363a8 8 0 0 0 6.863 1.455c13.16-3.291 38.06-17.508 38.06-47.761 0-47.451-39.6-48-40-48a8 8 0 0 0 -8 8v80a8 8 0 0 0 3.077 6.306zm12.923-76.435a24.407 24.407 0 0 1 4.268 2.239c7.785 5.15 11.732 14.533 11.732 27.89 0 14.865-8.671 23.318-16 27.808z"/><path d="m336 96.057a24 24 0 1 0 -24 24 24.027 24.027 0 0 0 24-24zm-24 8a8 8 0 1 1 8-8 8.009 8.009 0 0 1 -8 8z"/><path d="m494.656 315.562-45.425-68.137 13.924-27.847a8 8 0 1 0 -14.31-7.156l-13.789 27.578h-19.056v-65.437a91.068 91.068 0 0 0 28.532-12.914c16.181-11.124 35.468-32.921 35.468-73.592 0-42.823-31.583-69.074-86.651-72.022a24.211 24.211 0 0 0 -17.87 6.566 23.752 23.752 0 0 0 -7.479 17.399v157.177c-18.528-11.049-31-29.527-31.942-50.6a56 56 0 1 0 -48.026.041c.86 34.315 18.574 66.39 47.968 86.99v6.392h-56v-56c0-4.5-2.176-12.914-16.744-18.742-8.478-3.39-19.578-5.258-31.256-5.258s-22.778 1.868-31.256 5.258c-14.568 5.828-16.744 14.242-16.744 18.742v56h-45.944l16.652-72.157a24.022 24.022 0 1 0 -15.588-3.608l-17.484 75.765h-10.4l-5.029-50.286a24 24 0 1 0 -15.92 1.594l4.873 48.692h-16.2c-.885-5.673-2.41-14.113-4.756-23.031-5.967-22.682-13.881-36.207-24.193-41.348-4.844-2.415-12.608-4.117-22.088 1.494-9.9 5.854-12.055 13.618-12.123 19.1-.145 11.513 8.629 24.613 26.821 40.049 6.769 5.744 13.489 10.642 18.279 13.959l-43.56 65.34a8 8 0 0 0 -1.34 4.437v168a8 8 0 0 0 8 8h464a8 8 0 0 0 8-8v-168a8 8 0 0 0 -1.344-4.438zm-342.656-179.562a8 8 0 1 1 -8 8 8.009 8.009 0 0 1 8-8zm234.486-101.787a8.053 8.053 0 0 1 6.007-2.2c12.877.689 31.374 3.29 46.363 11.765 16.919 9.565 25.144 24.049 25.144 44.279 0 63.82-54.69 71.758-56.992 72.062a8 8 0 0 0 -7.008 7.938v7.943h-16v-136a7.9 7.9 0 0 1 2.486-5.787zm-2.486 157.787h16v15.594a79.088 79.088 0 0 1 -16-3.253zm-112-96a40 40 0 1 1 53.382 37.7 8 8 0 0 0 -5.318 7.207q-.064 1.538-.064 3.093a73.508 73.508 0 0 0 .443 8h-16.071c-.241-2.649-.372-5.317-.372-8q0-1.257.036-2.5a8 8 0 0 0 -5.337-7.769 40.059 40.059 0 0 1 -26.699-37.731zm35.326 72h16.743c10.473 30.194 40.131 52.719 75.931 55.666v16.334h-48v-10.649a8 8 0 0 0 -3.65-6.715c-20.497-13.276-34.887-32.771-41.024-54.636zm-75.326 8c18.777 0 29.739 5.382 31.8 8-2.061 2.618-13.023 8-31.8 8s-29.739-5.382-31.8-8c2.061-2.618 13.023-8 31.8-8zm-32 26.432c.247.1.489.208.744.31 8.478 3.39 19.578 5.258 31.256 5.258s22.778-1.868 31.256-5.258c.255-.1.5-.207.744-.31v37.568h-64zm-112-34.432a8 8 0 1 1 8 8 8.009 8.009 0 0 1 -8-8zm-56.2 28.415c.011-.905.038-3.025 4.271-5.53a8.987 8.987 0 0 1 4.5-1.52 5 5 0 0 1 2.3.574c2.647 1.318 9.485 6.972 15.814 30.928.877 3.319 1.634 6.592 2.281 9.665-14.818-11.403-29.266-25.632-29.166-34.117zm416.2 283.585h-384v-133.706l36.434-58.294h311.132l36.434 58.294zm32 0h-16v-136a7.994 7.994 0 0 0 -1.216-4.24l-40-64a8 8 0 0 0 -6.784-3.76h-320a8 8 0 0 0 -6.784 3.76l-40 64a7.994 7.994 0 0 0 -1.216 4.24v136h-16v-157.578l44.281-66.422h359.438l44.281 66.422z"/></svg>