<svg id="Layer_1" enable-background="new 0 0 512 512" height="512" viewBox="0 0 512 512" width="512" xmlns="http://www.w3.org/2000/svg"><g><g><path clip-rule="evenodd" d="m53.125 434.525h405.749c8.647 0 15.734 7.088 15.734 15.735v36.034c0 8.647-7.088 15.706-15.734 15.706h-405.749c-8.647 0-15.734-7.059-15.734-15.706v-36.034c0-8.647 7.087-15.735 15.734-15.735z" fill="#ffe4b4" fill-rule="evenodd"/></g><g><path clip-rule="evenodd" d="m215.572 91.449c30.647 20.186 90.778 31.64 130.383 15.962 0-94.834-93.783-123.1-139.313-72.891-41.051 4.678-38.471 58.346-38.358 72.55 42.185.425 39.01-21.093 47.288-15.621z" fill="#ffa96b" fill-rule="evenodd"/></g><g><path clip-rule="evenodd" d="m216.225 239.895c0 22.482 18.399 40.854 40.853 40.854 22.482 0 40.853-18.371 40.853-40.854v-32.632c-12.247 6.379-26.139 10.008-40.853 10.008-14.685 0-28.605-3.601-40.853-9.98z" fill="#ffd0c7" fill-rule="evenodd"/></g><g><path clip-rule="evenodd" d="m191.928 323.927h65.149 65.149c-1.588 3.345-2.778 7.201-3.657 11.397h48.451v-74.45c-21.83-9.016-47.26-13.779-69.09-20.98 0 22.482-18.371 40.854-40.853 40.854-22.453 0-40.853-18.371-40.853-40.854-21.83 7.201-47.26 11.964-69.09 20.98v74.45h48.451c-.878-4.195-2.069-8.051-3.657-11.397z" fill="#a0e5a5" fill-rule="evenodd"/></g><g><path clip-rule="evenodd" d="m216.225 207.291c12.247 6.379 26.167 9.98 40.853 9.98 14.714 0 28.605-3.629 40.853-10.008 28.464-14.856 48.025-44.681 48.025-78.873v-20.98c-39.605 15.678-99.736 4.224-130.383-15.962-8.278-5.472-5.103 16.047-47.288 15.621l-.085 21.32c-.114 34.193 19.504 64.046 48.025 78.902z" fill="#ffdcd5" fill-rule="evenodd"/></g><g><path clip-rule="evenodd" d="m96.501 330.732v58.914h50.634v-54.321-74.45c-27.982 11.567-49.982 30.137-50.634 69.857z" fill="#a0e5a5" fill-rule="evenodd"/></g><g><path clip-rule="evenodd" d="m147.135 389.645h33.567c4.423 0 8.647.936 12.474 2.665 1.786-7.882 3.119-16.387 3.771-24.779.907-11.454.595-22.738-1.361-32.207h-48.451z" fill="#ffd88e" fill-rule="evenodd"/></g><g><path clip-rule="evenodd" d="m320.979 392.31c3.827-1.729 8.051-2.665 12.474-2.665h33.567v-54.321h-48.451c-1.956 9.469-2.268 20.753-1.361 32.207.652 8.392 1.985 16.898 3.771 24.779z" fill="#ffd88e" fill-rule="evenodd"/></g><g><path clip-rule="evenodd" d="m367.02 389.645h50.634v-58.914c-.652-39.72-22.652-58.29-50.634-69.857v74.45z" fill="#a0e5a5" fill-rule="evenodd"/></g><g><path clip-rule="evenodd" d="m333.85 450.685h67.644c8.902 0 16.16-7.286 16.16-16.16v-44.88h-50.634-33.567c-4.423 0-8.647.936-12.474 2.665-10.603 4.791-18.059 15.508-18.059 27.841 0 16.812 13.75 30.534 30.533 30.534z" fill="#ffdcd5" fill-rule="evenodd"/></g><g><path clip-rule="evenodd" d="m112.661 450.685h67.644.397c16.783 0 30.533-13.722 30.533-30.534 0-12.333-7.456-23.049-18.059-27.841-3.827-1.729-8.051-2.665-12.474-2.665h-33.567-50.634v44.88c0 8.874 7.258 16.16 16.16 16.16z" fill="#ffdcd5" fill-rule="evenodd"/></g><g><path clip-rule="evenodd" d="m202.106 502h54.971 54.971c14.572-14.913 21.745-33.029 21.801-51.315h-.397c-16.783 0-30.533-13.722-30.533-30.534 0-12.333 7.456-23.049 18.059-27.841-1.786-7.882-3.119-16.387-3.771-24.779h-120.261c-.652 8.392-1.985 16.897-3.771 24.779 10.603 4.791 18.059 15.508 18.059 27.841 0 16.812-13.75 30.534-30.533 30.534h-.397c.057 18.286 7.258 36.403 21.802 51.315z" fill="#ffa96b" fill-rule="evenodd"/></g><g><path clip-rule="evenodd" d="m196.946 367.531h120.262c-.907-11.454-.595-22.738 1.361-32.207.879-4.196 2.07-8.052 3.657-11.397h-65.149-65.149c1.588 3.345 2.778 7.201 3.657 11.397 1.957 9.47 2.269 20.754 1.361 32.207z" fill="#ffd4b5" fill-rule="evenodd"/></g><g><path d="m458.875 424.525h-31.222v-34.88-36.601c0-5.523-4.477-10-10-10s-10 4.477-10 10v26.602h-30.634v-102.759c2.123 1.238 4.169 2.541 6.116 3.928 1.759 1.253 3.784 1.855 5.791 1.855 3.125 0 6.204-1.461 8.155-4.201 3.203-4.499 2.152-10.743-2.347-13.946-7.234-5.151-15.236-9.287-23.668-12.788-.164-.072-.331-.137-.499-.201-13.674-5.625-28.458-9.603-42.945-13.491-6.839-1.836-13.401-3.598-19.693-5.487v-19.396c28.751-17.313 48.025-48.832 48.025-84.77v-20.98c0-25.216-6.055-47.252-17.997-65.498-10.843-16.565-26.068-28.985-44.03-35.916-32.547-12.561-68.315-5.017-92.174 19.144-18.771 3.442-32.096 16.184-38.662 37.061-5.194 16.516-4.948 34.383-4.83 42.97.01.712-.062 23.189-.062 23.189-.076 26.24 10.168 51.007 28.844 69.736 5.846 5.863 12.287 10.905 19.182 15.068v19.395c-6.312 1.898-12.895 3.666-19.756 5.509-14.418 3.872-29.143 7.829-42.774 13.426-.319.117-.629.249-.931.396-7.768 3.245-15.173 7.029-21.941 11.664-22.606 15.48-33.832 37.4-34.32 67.012-.001.055-.001.11-.001.165v58.914 34.88h-33.377c-14.19 0-25.733 11.544-25.733 25.735v36.034c0 14.174 11.543 25.706 25.733 25.706h148.981 109.943 146.827c14.19 0 25.733-11.532 25.733-25.706v-36.034c-.001-14.19-11.544-25.735-25.734-25.735zm-51.221-24.88v34.88c0 3.34-2.821 6.161-6.16 6.161h-68.041c-11.322 0-20.533-9.212-20.533-20.535 0-11.307 9.212-20.506 20.533-20.506zm-80.569-33.603c-.552-7.426-.521-14.468.092-20.717h29.843v34.322h-23.567c-1.594 0-3.163.103-4.709.282-.682-4.174-1.197-8.309-1.539-12.341 0-.019.003-.037.003-.055 0-.509-.05-1.004-.123-1.491zm-119.311-321.587c2.414-.275 4.644-1.419 6.276-3.218 18.211-20.083 46.742-26.589 72.678-16.582 28.985 11.186 46.987 39.21 49.033 75.708-36.204 10.814-88.073.266-114.675-17.256-2.821-1.865-5.445-2.573-7.814-2.573-5.945 0-10.275 4.461-12.034 6.273-3.184 3.281-8.16 8.41-22.955 9.87.511-23.036 5.281-49.463 29.491-52.222zm-6.57 139.521c-14.896-14.939-23.066-34.67-23.006-55.546l.047-11.682c21.322-1.645 30.557-9.22 35.815-14.457 22.411 13.291 56.412 22.358 88.704 22.358 11.477 0 22.742-1.146 33.191-3.656v7.396c0 43.495-35.384 78.881-78.878 78.881-21.052.001-40.894-8.272-55.873-23.294zm86.726 38.359v17.56c0 17.013-13.84 30.854-30.853 30.854s-30.853-13.841-30.853-30.854v-17.543c9.837 3.235 20.22 4.918 30.853 4.918 10.77 0 21.14-1.737 30.853-4.935zm-130.796 45.383c10.798-3.961 22.568-7.124 34.522-10.335 5.379-1.445 10.861-2.921 16.262-4.48 5.763 21.758 25.615 37.845 49.159 37.845 23.546 0 43.399-16.089 49.16-37.849 5.38 1.552 10.842 3.021 16.199 4.459 11.685 3.137 23.574 6.339 34.583 10.382v57.584h-24.91c.328-2.325-.151-4.726-1.445-6.762-1.835-2.887-5.018-4.635-8.439-4.635h-130.296c-3.423 0-6.608 1.751-8.443 4.641-1.291 2.034-1.768 4.433-1.44 6.756h-24.911v-57.606zm149.578 89.814h-99.264c.108-8.162-.448-16.225-1.933-23.605h103.133c-1.485 7.383-2.042 15.446-1.936 23.605zm-149.578-12.208h29.852c.611 6.232.641 13.256.091 20.665-.078.504-.131 1.017-.131 1.542 0 .027.004.053.004.08-.343 4.023-.857 8.151-1.539 12.316-1.546-.18-3.116-.282-4.71-.282h-23.567zm-50.633-14.507c.474-27.481 12.675-43.31 30.634-53.897v102.725h-30.634zm0 68.828h74.201c11.323 0 20.534 9.199 20.534 20.506 0 11.323-9.212 20.535-20.534 20.535h-.395-.032-67.612c-3.34 0-6.161-2.821-6.161-6.161v-34.88zm-53.376 92.356c-3.108 0-5.734-2.613-5.734-5.707v-36.034c0-3.109 2.626-5.736 5.734-5.736h35.367c3.936 9.477 13.285 16.16 24.169 16.16h58.333c1.431 10.958 5.134 21.575 10.908 31.316h-128.777zm254.559 0h-101.21c-8.492-9.703-13.754-20.808-15.51-32.636 17.396-4.557 30.27-20.409 30.27-39.214 0-13.492-6.641-25.456-16.822-32.821.588-3.168 1.106-6.452 1.546-9.798h102.238c.44 3.347.957 6.631 1.545 9.799-10.18 7.365-16.822 19.329-16.822 32.821 0 18.806 12.875 34.659 30.272 39.215-1.753 11.842-7.014 22.947-15.507 32.634zm156.925-5.707c0 3.094-2.626 5.707-5.734 5.707h-126.613c5.77-9.734 9.471-20.351 10.899-31.316h58.332c10.884 0 20.233-6.683 24.169-16.16h33.213c3.108 0 5.734 2.627 5.734 5.736z"/><path d="m407.634 315.859c1.949 1.949 4.499 2.922 7.05 2.922 2.559 0 5.121-.98 7.077-2.936 3.905-3.905 3.891-10.251-.014-14.156-3.906-3.905-10.236-3.905-14.142 0-3.905 3.905-3.905 10.237 0 14.142z"/></g></g></svg>