<?xml version="1.0" encoding="iso-8859-1"?>
<!-- Generator: Adobe Illustrator 19.0.0, SVG Export Plug-In . SVG Version: 6.00 Build 0)  -->
<svg version="1.1" id="Capa_1" xmlns="http://www.w3.org/2000/svg" xmlns:xlink="http://www.w3.org/1999/xlink" x="0px" y="0px"
	 viewBox="0 0 512 512" style="enable-background:new 0 0 512 512;" xml:space="preserve">
<path style="fill:#FADA6D;" d="M501.942,182.955l-92.258-76.337c-21.181-17.525-47.812-27.115-75.303-27.115H177.619
	c-27.491,0-54.123,9.589-75.303,27.115l-92.258,76.337c-2.999,2.481-3.446,6.914-1.003,9.944l45.401,56.318
	c2.434,3.019,6.839,3.532,9.901,1.152l55.283-42.955c6.289-4.886,15.445-0.405,15.445,7.559v205.389
	c0,6.703,5.433,12.135,12.135,12.135h217.558c6.703,0,12.135-5.433,12.135-12.135V214.972c0-7.964,9.157-12.445,15.445-7.559
	l55.283,42.955c3.062,2.379,7.467,1.867,9.901-1.152l45.401-56.318C505.388,189.868,504.941,185.436,501.942,182.955z"/>
<path style="fill:#F2C55A;" d="M376.725,422.439c-162.01-35.64-202.18-214.346-209.564-342.469
	c-23.732,2.109-46.364,11.355-64.845,26.647l-92.258,76.337c-2.999,2.481-3.446,6.913-1.003,9.944l45.401,56.318
	c2.434,3.019,6.839,3.532,9.901,1.152l55.283-42.955c6.289-4.886,15.445-0.405,15.445,7.559v205.389
	c0,6.703,5.433,12.135,12.135,12.135h217.558C370.772,432.497,375.737,428.149,376.725,422.439z"/>
<path style="fill:#FFFFFF;" d="M289.99,79.502c0,18.773-15.218,33.99-33.99,33.99s-33.99-15.217-33.99-33.99h-26.298
	c0,33.296,26.992,60.288,60.288,60.288s60.288-26.992,60.288-60.288H289.99z"/>
<path style="fill:#EBAC40;" d="M83.552,235.454l-54.796-67.971l-18.699,15.471c-2.999,2.481-3.446,6.913-1.003,9.944l45.401,56.318
	c2.434,3.019,6.839,3.532,9.901,1.152L83.552,235.454z"/>
<g>
	<path style="fill:#F4BC48;" d="M428.448,235.454l54.796-67.971l18.699,15.471c2.999,2.481,3.446,6.913,1.003,9.944l-45.401,56.318
		c-2.434,3.019-6.839,3.532-9.901,1.152L428.448,235.454z"/>
	<path style="fill:#F4BC48;" d="M376.915,399.656H135.085v20.705c0,6.703,5.433,12.135,12.135,12.135h217.558
		c6.703,0,12.135-5.433,12.135-12.135v-20.705H376.915z"/>
</g>
<path style="fill:#EBAC40;" d="M376.725,422.439c-22.627-4.977-42.873-12.751-60.989-22.783h-180.65v20.706
	c0,6.703,5.433,12.135,12.135,12.135h217.558C370.772,432.497,375.737,428.149,376.725,422.439z"/>
<g>
	<path style="fill:#60C28E;" d="M235.903,317.319h-30.659c-7.56,0-14.33-3.909-18.11-10.456c-3.78-6.547-3.78-14.364,0-20.912
		l25.378-43.956c2.071-3.587,6.658-4.817,10.246-2.745c3.587,2.071,4.816,6.659,2.745,10.246l-25.378,43.956
		c-1.54,2.667-0.513,5.021,0,5.91c0.513,0.889,2.039,2.955,5.118,2.955h30.659c4.142,0,7.501,3.358,7.501,7.501
		C243.403,313.961,240.045,317.319,235.903,317.319z"/>
	<path style="fill:#60C28E;" d="M306.757,317.319H256c-4.142,0-7.501-3.358-7.501-7.501c0-4.142,3.358-7.501,7.501-7.501h50.756
		c3.079,0,4.605-2.067,5.118-2.955c0.513-0.889,1.54-3.243,0-5.91l-16.898-29.268c-2.071-3.587-0.842-8.175,2.745-10.246
		c3.588-2.072,8.175-0.843,10.246,2.745l16.898,29.268c3.78,6.548,3.779,14.365,0,20.912
		C321.086,313.411,314.316,317.319,306.757,317.319z"/>
	<path style="fill:#60C28E;" d="M292.999,253.249c-2.592,0-5.113-1.345-6.503-3.751l-25.378-43.957
		c-1.54-2.667-4.092-2.955-5.118-2.955c-1.026,0-3.578,0.288-5.118,2.955l-16.898,29.268c-2.071,3.587-6.661,4.815-10.246,2.745
		c-3.587-2.071-4.816-6.659-2.745-10.246l16.898-29.268c3.78-6.547,10.55-10.456,18.11-10.456c7.56,0,14.33,3.909,18.11,10.456
		l25.378,43.957c2.071,3.587,0.842,8.175-2.745,10.246C295.562,252.924,294.272,253.249,292.999,253.249z"/>
	<path style="fill:#60C28E;" d="M276.363,334.864c-1.561,0-3.135-0.485-4.482-1.492l-18.504-13.82
		c-3.101-2.316-4.878-5.865-4.878-9.734c0.001-3.87,1.778-7.418,4.878-9.733l18.503-13.82c3.318-2.479,8.019-1.798,10.498,1.52
		c2.479,3.319,1.798,8.019-1.521,10.498l-15.443,11.535l15.443,11.535c3.318,2.478,4,7.179,1.521,10.498
		C280.905,333.823,278.649,334.864,276.363,334.864z"/>
	<path style="fill:#60C28E;" d="M290.681,253.881c-1.623,0-3.253-0.331-4.807-0.998l-21.22-9.114
		c-3.806-1.634-5.566-6.046-3.932-9.852c1.635-3.807,6.048-5.565,9.852-3.932l17.71,7.606l2.268-19.141
		c0.487-4.113,4.215-7.054,8.331-6.566c4.114,0.487,7.054,4.217,6.566,8.331l-2.717,22.934c-0.456,3.843-2.639,7.157-5.99,9.092
		C294.856,253.332,292.774,253.881,290.681,253.881z"/>
	<path style="fill:#60C28E;" d="M224.008,279.659c-3.748,0-6.988-2.804-7.439-6.619l-2.268-19.141l-17.711,7.606
		c-3.804,1.636-8.216-0.125-9.851-3.932c-1.635-3.806,0.125-8.217,3.932-9.852l21.22-9.114c3.555-1.527,7.517-1.293,10.868,0.641
		c3.351,1.934,5.534,5.247,5.99,9.091l2.717,22.935c0.487,4.113-2.452,7.844-6.566,8.331
		C224.6,279.642,224.302,279.659,224.008,279.659z"/>
	<path style="fill:#60C28E;" d="M306.757,317.319H256c-4.142,0-7.501-3.358-7.501-7.501c0-4.142,3.358-7.501,7.501-7.501h50.756
		c3.079,0,4.605-2.067,5.118-2.955c0.513-0.889,1.54-3.243,0-5.91l-15.329-26.551c-2.071-3.587-0.842-8.175,2.745-10.246
		c3.588-2.071,8.175-0.842,10.246,2.745l15.329,26.551c3.78,6.548,3.779,14.365,0,20.912
		C321.086,313.411,314.316,317.319,306.757,317.319z"/>
</g>
<path style="fill:#F4BC48;" d="M222.01,79.502c0,18.773,15.218,33.99,33.99,33.99s33.99-15.218,33.99-33.99H222.01z"/>
<path d="M506.724,177.176l-92.259-76.337c-22.474-18.596-50.915-28.836-80.085-28.836H177.619c-26.266,0-51.459,8.051-72.855,23.283
	c-3.375,2.402-4.163,7.086-1.76,10.461c2.402,3.374,7.087,4.162,10.46,1.76c18.841-13.413,41.025-20.503,64.154-20.503h11.017
	c3.745,33.861,32.521,60.288,67.364,60.288s63.618-26.427,67.364-60.288h11.017c25.686,0,50.731,9.019,70.522,25.393l67.854,56.145
	l-45.524,56.47l-30.271-23.52c-5.189-4.031-12.078-4.742-17.979-1.854c-5.902,2.888-9.569,8.765-9.569,15.335v177.183h-9.147
	c-4.142,0-7.501,3.358-7.501,7.501s3.358,7.501,7.501,7.501h9.147v13.205c0,2.555-2.079,4.634-4.634,4.634H147.219
	c-2.555,0-4.634-2.079-4.634-4.634v-13.205h181.246c4.142,0,7.501-3.358,7.501-7.501s-3.358-7.501-7.501-7.501H142.586V214.972
	c0-6.571-3.666-12.447-9.569-15.335s-12.791-2.178-17.98,1.854L84.767,225.01l-45.524-56.47l47.217-39.069
	c3.191-2.641,3.638-7.369,0.997-10.561c-2.641-3.191-7.369-3.638-10.561-0.997L5.275,177.176c-6.129,5.072-7.053,14.237-2.06,20.43
	l45.401,56.317c4.966,6.163,14.092,7.225,20.343,2.368l55.284-42.955c0.843-0.656,1.65-0.484,2.181-0.225
	c0.53,0.259,1.161,0.793,1.161,1.861v205.389c0,10.827,8.809,19.636,19.636,19.636h217.558c10.827,0,19.636-8.809,19.636-19.636
	V214.972c0-1.068,0.631-1.602,1.161-1.861c0.53-0.26,1.338-0.431,2.182,0.225l55.283,42.955c6.251,4.857,15.376,3.793,20.343-2.368
	l45.402-56.318C513.777,191.412,512.853,182.248,506.724,177.176z M281.401,87.003c-3.243,10.964-13.4,18.989-25.401,18.989
	c-12.001,0-22.158-8.025-25.401-18.989H281.401z M256,132.289c-26.56,0-48.591-19.721-52.245-45.287h11.446
	c3.542,19.308,20.483,33.99,40.798,33.99s37.257-14.681,40.798-33.99h11.446C304.59,112.569,282.56,132.289,256,132.289z
	 M60.056,244.211l-44.922-55.722l12.55-10.385l45.235,56.112L60.056,244.211z M451.944,244.211l-12.864-9.996l45.235-56.112
	l12.55,10.385L451.944,244.211z"/>
<g>
</g>
<g>
</g>
<g>
</g>
<g>
</g>
<g>
</g>
<g>
</g>
<g>
</g>
<g>
</g>
<g>
</g>
<g>
</g>
<g>
</g>
<g>
</g>
<g>
</g>
<g>
</g>
<g>
</g>
</svg>
