<svg id="Layer_1_1_" enable-background="new 0 0 64 64" height="512" viewBox="0 0 64 64" width="512" xmlns="http://www.w3.org/2000/svg"><path d="m36.803 38.521-3.803-1.521h-24l-3.803 1.521c-.729.291-1.22.982-1.255 1.766l-.942 20.713v1h36v-1l-.941-20.713c-.036-.783-.527-1.474-1.256-1.766z" fill="#47648f"/><path d="m19.25 33.563c1.149.287 2.351.287 3.5 0 1.156-.289 2.244-.724 3.25-1.279 3.208-1.768 5.566-4.774 6.524-8.308l-6.524-5.976c-2.47 2.648-5.762 4.386-9.342 4.931l-7.167 1.093c.967 3.512 3.316 6.499 6.509 8.259 1.006.555 2.094.991 3.25 1.28z" fill="#fee6d5"/><path d="m30 18h-4l6.524 5.976c.308-1.135.476-2.322.476-3.541v-5.435c0 1.657-1.343 3-3 3z" fill="#904c2a"/><path d="m12 18h14 4c1.657 0 3-1.343 3-3l-3.95-.987c-5.286-1.321-10.815-1.321-16.101 0l-3.949.987c0 1.657 1.343 3 3 3z" fill="#47648f"/><path d="m26 18h-14c-1.657 0-3-1.343-3-3v5.435c0 1.237.174 2.44.491 3.59l7.167-1.093c3.58-.546 6.872-2.284 9.342-4.932z" fill="#904c2a"/><path d="m29.05 14.013 3.95.987c0-6-5.373-12-12-12s-12 6-12 12l3.95-.987c5.285-1.322 10.815-1.322 16.1 0z" fill="#47648f"/><g fill="#425670"><path d="m32.727 12.655-1.664-.416c-6.607-1.652-13.519-1.652-20.126 0l-1.664.416c-.176.773-.273 1.559-.273 2.345l3.95-.987c5.286-1.321 10.815-1.321 16.101 0l3.949.987c0-.786-.097-1.572-.273-2.345z"/><path d="m24.111 41.111-3.111 4.889-3.111-4.889-5.889 5.889 3.847-2.308c.697-.418 1.578-.373 2.229.115l2.924 2.193 2.924-2.193c.651-.488 1.532-.533 2.229-.115l3.847 2.308z"/><path d="m10 53.41.268-5.053.968 3.237c.093.312.361.524.663.524h5.578c.372 0 .679-.319.696-.723v-.008c.072-1.695 1.356-3.029 2.916-3.029 1.612 0 2.919 1.422 2.919 3.177 0 .419.312.759.697.759h2.375c1.612 0 2.919 1.422 2.919 3.177v3.354c.001 1.753-1.306 3.175-2.918 3.175h-16.974z"/><path d="m5.093 61c-1.14 0-2.05-.952-1.998-2.091l-.095 2.091v1h8v-1z"/></g><path d="m24 61c2.339 0 4.209-2.007 3.981-4.393-.198-2.08-2.064-3.607-4.153-3.607h-.828v-1.893c0-.996-.681-1.92-1.664-2.08-1.253-.203-2.336.758-2.336 1.973v2h-9l-6.813 3.893-.092 2.016c-.052 1.139.858 2.091 1.998 2.091z" fill="#fee6d5"/><path d="m17.89 41.11-5.889 5.889-3-10-1.448.579 3.245 10.817c.217.725 1.13.955 1.665.42l6.313-6.313z" fill="#425670"/><path d="m33 37.001-3 10-5.889-5.889-.886 1.392 6.313 6.313c.535.535 1.448.305 1.665-.42l3.245-10.817z" fill="#425670"/><path d="m30 47 3-10-5-2-3.889 6.111z" fill="#47648f"/><path d="m17.889 41.111-3.889-6.111-5 2 3 10z" fill="#47648f"/><path d="m26 32.284c-1.006.555-2.094.99-3.25 1.279-1.149.287-2.351.287-3.5 0-1.156-.289-2.244-.724-3.25-1.279l-2 2.716 7 11 7-11z" fill="#fee6d5"/><path d="m27.492 34.31-1.492-2.026c-1.006.555-2.094.99-3.25 1.279-1.149.287-2.351.287-3.5 0-1.156-.289-2.244-.724-3.25-1.279l-1.492 2.026c.476.352.968.685 1.492.974 1.006.555 2.094.99 3.25 1.279 1.149.287 2.351.287 3.5 0 1.156-.289 2.244-.724 3.25-1.279.524-.289 1.016-.622 1.492-.974z" fill="#e6d0c0"/><ellipse cx="16" cy="25.5" fill="#472615" rx="1" ry="1.5"/><ellipse cx="26" cy="25.5" fill="#472615" rx="1" ry="1.5"/><path d="m55.503 30.811.015-.025.347-2.841c.081-.564-.209-1.117-.719-1.372l-.459-.229c-.425-.213-.932-.181-1.327.083l-1.873 1.249c-.311.207-.694.273-1.056.183l-2.242-.56c-.671-.168-1.359.21-1.578.866l-.193.58c-.231.694-.981 1.069-1.675.838-.857-.288-1.743.351-1.743 1.255v2.162 7h4.727l.259-.475c1.859-3.408 4.427-6.372 7.517-8.714z" fill="#659443"/><path d="m45 37.606c0-1.126-.563-2.178-1.5-2.803s-1.5-1.677-1.5-2.803v-6h-4v6c0 1.126-.563 2.178-1.5 2.803s-1.5 1.677-1.5 2.803v2.394h10z" fill="#572e19"/><path d="m54 40v22h6v-22l-1.5 1-1.5 1z" fill="#7a5324"/><path d="m57 42 1.5-1 3.92-7.84c.359-.717.305-1.572-.139-2.239-.7-1.051-2.131-1.313-3.159-.579-3.371 2.408-6.152 5.547-8.135 9.184l-.26.474h3.273z" fill="#fca947"/><path d="m56 33 2 3c.581-.581.672-1.492.216-2.177l-1.202-1.803c-.358.313-.707.637-1.048.968z" fill="#e39840"/><path d="m55 34h-.023c-.321.346-.633.7-.936 1.061l1.959 2.939c.581-.581.672-1.492.216-2.177z" fill="#e39840"/><path d="m62.281 30.921c-.111-.166-.245-.305-.388-.431-.034.23-.093.457-.2.671l-3.92 7.839-1.5 1-3-2h-1.383c-.316.499-.62 1.005-.903 1.525l-.26.475h3.273l3 2 1.5-1 3.92-7.84c.359-.717.305-1.572-.139-2.239z" fill="#e39840"/><path d="m43.5 34.803c-.937-.625-1.5-1.677-1.5-2.803v-6h-2v6c0 1.126.563 2.178 1.5 2.803s1.5 1.677 1.5 2.803v2.394h2v-2.394c0-1.127-.563-2.179-1.5-2.803z" fill="#472615"/><path d="m58.503 30.811.015-.025.347-2.841c.081-.564-.209-1.117-.719-1.372l-.459-.229c-.425-.213-.932-.181-1.327.083l-1.873 1.249c-.311.207-.694.273-1.056.183l-2.242-.56c-.671-.168-1.359.21-1.578.866l-.193.58c-.231.694-.981 1.069-1.675.838-.857-.288-1.743.351-1.743 1.255v2.162 7h4.727l.259-.475c1.859-3.408 4.427-6.372 7.517-8.714z" fill="#78af4f"/><path d="m33 40h21v22h-21z" fill="#90622a"/><path d="m53 40c0 11.046-8.954 20-20 20v2h21v-22z" fill="#8a5e28"/><path d="m48.8 39.267c-.884-.663-1.063-1.916-.4-2.799l2.6-3.468c.663-.884 1.916-1.062 2.8-.4z" fill="#659443"/><path d="m47.618 51-1.724-3.447-1.789.895 1.277 2.552h-3.764l1.276-2.553-1.789-.895-1.723 3.448h-2.382c-.552 0-1 .448-1 1v1h1.18l.839 4.196c.094.468.504.804.981.804h9c.477 0 .887-.336.98-.804l.84-4.196h1.18v-1c0-.552-.448-1-1-1z" fill="#593d1a"/></svg>