<svg id="Capa_1" enable-background="new 0 0 512 512" height="512" viewBox="0 0 512 512" width="512" xmlns="http://www.w3.org/2000/svg"><g><g><path d="m497 481h-241c-8.291 0-15-6.709-15-15s6.709-15 15-15h241c8.291 0 15 6.709 15 15s-6.709 15-15 15z" fill="#4d332e"/></g><g><path d="m467 481c-8.291 0-15-6.709-15-15v-30c0-8.291 6.709-15 15-15s15 6.709 15 15v30c0 8.291-6.709 15-15 15z" fill="#4d332e"/></g><g><path d="m497 481h-241c-8.291 0-15-6.709-15-15s6.709-15 15-15h241c8.291 0 15 6.709 15 15s-6.709 15-15 15z" fill="#4d332e"/></g><g><path d="m467 481c-8.291 0-15-6.709-15-15v-30c0-8.291 6.709-15 15-15s15 6.709 15 15v30c0 8.291-6.709 15-15 15z" fill="#4d332e"/></g><g><path d="m414.95 423.739-23.833-17.871c-6.636-4.966-7.983-14.37-3.003-20.991 4.966-6.636 14.385-7.939 20.991-3.003l23.833 17.871c6.636 4.966 7.983 14.37 3.003 20.991-4.948 6.622-14.347 7.986-20.991 3.003z" fill="#4d332e"/></g><g><path d="m447.353 373.378-27.905-10.415c-7.764-2.886-11.704-11.528-8.804-19.292 2.886-7.749 11.528-11.66 19.292-8.804l27.905 10.415c7.764 2.886 11.704 11.528 8.804 19.292-2.879 7.751-11.518 11.703-19.292 8.804z" fill="#4d332e"/></g><g><path d="m464.228 315.897-29.736-2.095c-8.262-.571-14.487-7.749-13.901-16.011.571-8.276 7.588-14.575 16.011-13.901l29.736 2.095c8.262.571 14.487 7.749 13.901 16.011-.597 8.469-8.024 14.54-16.011 13.901z" fill="#4d332e"/></g><path d="m166 361h-30-76l-30 30v75c0 8.291 6.709 15 15 15h91 30c8.291 0 15-6.709 15-15v-90c0-8.291-6.709-15-15-15z" fill="#66443d"/><path d="m181 466v-90c0-8.291-6.709-15-15-15h-30v120h30c8.291 0 15-6.709 15-15z" fill="#4d332e"/><path d="m363.505 212.011c-35.625 5.815-62.505 38.994-62.505 77.197v5.581l14.238 35.449-26.744-5.533c-.809.599-1.626 1.166-2.494 1.683l-15 34.612-15-34.612c-.868-.516-1.685-1.084-2.494-1.683l-26.744 5.533 14.238-35.449v-188.789h-105-106v255 30h15c28.594 0 59.57 18.067 91 38.212 2.318 1.485 4.623 2.957 6.958 4.459 36.138 23.276 73.506 47.329 113.042 47.329 107.52 0 195-87.48 195-195 0-45.463-40.349-81.418-87.495-73.989z" fill="#b37436"/><path d="m256 481c107.52 0 195-87.48 195-195 0-45.463-40.349-81.418-87.495-73.989-35.625 5.815-62.505 38.994-62.505 77.197v5.581l14.238 35.449-26.744-5.533c-.809.599-1.626 1.166-2.494 1.683l-15 34.612-15-34.612c-.868-.516-1.685-1.084-2.494-1.683l-26.744 5.533 14.238-35.449v-188.789h-105v323.212c2.318 1.485 4.623 2.957 6.958 4.459 36.138 23.276 73.506 47.329 113.042 47.329z" fill="#995b2e"/><g fill="#66443d"><path d="m256 326.388v49.612c0 8.291 6.709 15 15 15s15-6.709 15-15v-49.612c-4.481 2.666-9.419 4.612-15 4.612s-10.519-1.946-15-4.612z"/><path d="m196.762 360.238c5.859 5.859 15.352 5.859 21.211 0l35.533-35.533c-7.39-5.47-12.506-13.828-12.506-23.705v-6.211l-44.238 44.238c-5.86 5.86-5.86 15.352 0 21.211z"/><path d="m288.494 324.705 35.533 35.533c5.859 5.859 15.352 5.859 21.211 0s5.859-15.352 0-21.211l-44.238-44.238v6.211c0 9.877-5.116 18.235-12.506 23.705z"/></g><g><g><g><g><path d="m256 31h-241c-8.401 0-15 6.599-15 15v60c0 8.401 6.599 15 15 15h241c8.401 0 15-6.599 15-15v-60c0-8.401-6.599-15-15-15z" fill="#995b2e"/></g></g></g></g><path d="m271 46v60c0 8.401-6.599 15-15 15h-120v-90h120c8.401 0 15 6.599 15 15z" fill="#804426"/></g></svg>